<?xml version="1.0" encoding="UTF-8" standalone="no"?>
<!-- Created with Inkscape (http://www.inkscape.org/) -->

<svg
   xmlns:dc="http://purl.org/dc/elements/1.1/"
   xmlns:cc="http://creativecommons.org/ns#"
   xmlns:rdf="http://www.w3.org/1999/02/22-rdf-syntax-ns#"
   xmlns:svg="http://www.w3.org/2000/svg"
   xmlns="http://www.w3.org/2000/svg"
   xmlns:sodipodi="http://sodipodi.sourceforge.net/DTD/sodipodi-0.dtd"
   xmlns:inkscape="http://www.inkscape.org/namespaces/inkscape"
   width="128"
   height="128"
   id="svg2"
   sodipodi:version="0.32"
   inkscape:version="0.47 r22583"
   version="1.0"
   sodipodi:docname="start-here.svg"
   inkscape:output_extension="org.inkscape.output.svg.inkscape">
  <defs
     id="defs4">
    <inkscape:perspective
       sodipodi:type="inkscape:persp3d"
       inkscape:vp_x="0 : 526.18109 : 1"
       inkscape:vp_y="0 : 1000 : 0"
       inkscape:vp_z="744.09448 : 526.18109 : 1"
       inkscape:persp3d-origin="372.04724 : 350.78739 : 1"
       id="perspective10" />
    <inkscape:perspective
       id="perspective2827"
       inkscape:persp3d-origin="0.5 : 0.33333333 : 1"
       inkscape:vp_z="1 : 0.5 : 1"
       inkscape:vp_y="0 : 1000 : 0"
       inkscape:vp_x="0 : 0.5 : 1"
       sodipodi:type="inkscape:persp3d" />
    <inkscape:perspective
       id="perspective2849"
       inkscape:persp3d-origin="0.5 : 0.33333333 : 1"
       inkscape:vp_z="1 : 0.5 : 1"
       inkscape:vp_y="0 : 1000 : 0"
       inkscape:vp_x="0 : 0.5 : 1"
       sodipodi:type="inkscape:persp3d" />
    <inkscape:perspective
       id="perspective2871"
       inkscape:persp3d-origin="0.5 : 0.33333333 : 1"
       inkscape:vp_z="1 : 0.5 : 1"
       inkscape:vp_y="0 : 1000 : 0"
       inkscape:vp_x="0 : 0.5 : 1"
       sodipodi:type="inkscape:persp3d" />
    <inkscape:perspective
       id="perspective2893"
       inkscape:persp3d-origin="0.5 : 0.33333333 : 1"
       inkscape:vp_z="1 : 0.5 : 1"
       inkscape:vp_y="0 : 1000 : 0"
       inkscape:vp_x="0 : 0.5 : 1"
       sodipodi:type="inkscape:persp3d" />
    <inkscape:perspective
       id="perspective2915"
       inkscape:persp3d-origin="0.5 : 0.33333333 : 1"
       inkscape:vp_z="1 : 0.5 : 1"
       inkscape:vp_y="0 : 1000 : 0"
       inkscape:vp_x="0 : 0.5 : 1"
       sodipodi:type="inkscape:persp3d" />
    <inkscape:perspective
       id="perspective2943"
       inkscape:persp3d-origin="0.5 : 0.33333333 : 1"
       inkscape:vp_z="1 : 0.5 : 1"
       inkscape:vp_y="0 : 1000 : 0"
       inkscape:vp_x="0 : 0.5 : 1"
       sodipodi:type="inkscape:persp3d" />
    <inkscape:perspective
       id="perspective2977"
       inkscape:persp3d-origin="0.5 : 0.33333333 : 1"
       inkscape:vp_z="1 : 0.5 : 1"
       inkscape:vp_y="0 : 1000 : 0"
       inkscape:vp_x="0 : 0.5 : 1"
       sodipodi:type="inkscape:persp3d" />
    <inkscape:perspective
       id="perspective3011"
       inkscape:persp3d-origin="0.5 : 0.33333333 : 1"
       inkscape:vp_z="1 : 0.5 : 1"
       inkscape:vp_y="0 : 1000 : 0"
       inkscape:vp_x="0 : 0.5 : 1"
       sodipodi:type="inkscape:persp3d" />
    <inkscape:perspective
       id="perspective3045"
       inkscape:persp3d-origin="0.5 : 0.33333333 : 1"
       inkscape:vp_z="1 : 0.5 : 1"
       inkscape:vp_y="0 : 1000 : 0"
       inkscape:vp_x="0 : 0.5 : 1"
       sodipodi:type="inkscape:persp3d" />
    <inkscape:perspective
       id="perspective3067"
       inkscape:persp3d-origin="0.5 : 0.33333333 : 1"
       inkscape:vp_z="1 : 0.5 : 1"
       inkscape:vp_y="0 : 1000 : 0"
       inkscape:vp_x="0 : 0.5 : 1"
       sodipodi:type="inkscape:persp3d" />
    <inkscape:perspective
       id="perspective3093"
       inkscape:persp3d-origin="0.5 : 0.33333333 : 1"
       inkscape:vp_z="1 : 0.5 : 1"
       inkscape:vp_y="0 : 1000 : 0"
       inkscape:vp_x="0 : 0.5 : 1"
       sodipodi:type="inkscape:persp3d" />
    <inkscape:perspective
       id="perspective3121"
       inkscape:persp3d-origin="0.5 : 0.33333333 : 1"
       inkscape:vp_z="1 : 0.5 : 1"
       inkscape:vp_y="0 : 1000 : 0"
       inkscape:vp_x="0 : 0.5 : 1"
       sodipodi:type="inkscape:persp3d" />
    <inkscape:perspective
       id="perspective3149"
       inkscape:persp3d-origin="0.5 : 0.33333333 : 1"
       inkscape:vp_z="1 : 0.5 : 1"
       inkscape:vp_y="0 : 1000 : 0"
       inkscape:vp_x="0 : 0.5 : 1"
       sodipodi:type="inkscape:persp3d" />
    <inkscape:perspective
       id="perspective3177"
       inkscape:persp3d-origin="0.5 : 0.33333333 : 1"
       inkscape:vp_z="1 : 0.5 : 1"
       inkscape:vp_y="0 : 1000 : 0"
       inkscape:vp_x="0 : 0.5 : 1"
       sodipodi:type="inkscape:persp3d" />
    <inkscape:perspective
       id="perspective3205"
       inkscape:persp3d-origin="0.5 : 0.33333333 : 1"
       inkscape:vp_z="1 : 0.5 : 1"
       inkscape:vp_y="0 : 1000 : 0"
       inkscape:vp_x="0 : 0.5 : 1"
       sodipodi:type="inkscape:persp3d" />
    <inkscape:perspective
       id="perspective3248"
       inkscape:persp3d-origin="0.5 : 0.33333333 : 1"
       inkscape:vp_z="1 : 0.5 : 1"
       inkscape:vp_y="0 : 1000 : 0"
       inkscape:vp_x="0 : 0.5 : 1"
       sodipodi:type="inkscape:persp3d" />
    <inkscape:perspective
       id="perspective3276"
       inkscape:persp3d-origin="0.5 : 0.33333333 : 1"
       inkscape:vp_z="1 : 0.5 : 1"
       inkscape:vp_y="0 : 1000 : 0"
       inkscape:vp_x="0 : 0.5 : 1"
       sodipodi:type="inkscape:persp3d" />
    <inkscape:perspective
       id="perspective3304"
       inkscape:persp3d-origin="0.5 : 0.33333333 : 1"
       inkscape:vp_z="1 : 0.5 : 1"
       inkscape:vp_y="0 : 1000 : 0"
       inkscape:vp_x="0 : 0.5 : 1"
       sodipodi:type="inkscape:persp3d" />
    <inkscape:perspective
       id="perspective3326"
       inkscape:persp3d-origin="0.5 : 0.33333333 : 1"
       inkscape:vp_z="1 : 0.5 : 1"
       inkscape:vp_y="0 : 1000 : 0"
       inkscape:vp_x="0 : 0.5 : 1"
       sodipodi:type="inkscape:persp3d" />
    <inkscape:perspective
       id="perspective3354"
       inkscape:persp3d-origin="0.5 : 0.33333333 : 1"
       inkscape:vp_z="1 : 0.5 : 1"
       inkscape:vp_y="0 : 1000 : 0"
       inkscape:vp_x="0 : 0.5 : 1"
       sodipodi:type="inkscape:persp3d" />
    <inkscape:perspective
       id="perspective2823"
       inkscape:persp3d-origin="0.5 : 0.33333333 : 1"
       inkscape:vp_z="1 : 0.5 : 1"
       inkscape:vp_y="0 : 1000 : 0"
       inkscape:vp_x="0 : 0.5 : 1"
       sodipodi:type="inkscape:persp3d" />
  </defs>
  <sodipodi:namedview
     id="base"
     pagecolor="#ffffff"
     bordercolor="#666666"
     borderopacity="1.0"
     gridtolerance="10000"
     guidetolerance="10"
     objecttolerance="10"
     inkscape:pageopacity="0.0"
     inkscape:pageshadow="2"
     inkscape:zoom="2"
     inkscape:cx="111.91777"
     inkscape:cy="50.722941"
     inkscape:document-units="px"
     inkscape:current-layer="layer1"
     showgrid="true"
     inkscape:window-width="1024"
     inkscape:window-height="719"
     inkscape:window-x="254"
     inkscape:window-y="24"
     borderlayer="true"
     inkscape:showpageshadow="false"
     inkscape:window-maximized="0">
    <inkscape:grid
       type="xygrid"
       id="grid2383"
       visible="true"
       enabled="true"
       empspacing="8"
       snapvisiblegridlinesonly="true"
       dotted="true" />
  </sodipodi:namedview>
  <metadata
     id="metadata7">
    <rdf:RDF>
      <cc:Work
         rdf:about="">
        <dc:format>image/svg+xml</dc:format>
        <dc:type
           rdf:resource="http://purl.org/dc/dcmitype/StillImage" />
        <dc:title></dc:title>
      </cc:Work>
    </rdf:RDF>
  </metadata>
  <g
     inkscape:label="Layer 1"
     inkscape:groupmode="layer"
     id="layer1"
     transform="translate(0,112)">
    <path
       d="m 60.544823,-102.86837 c -2.884138,-0.004 -5.785621,0.0294 -8.684854,0.11619 -2.36505,0.35642 -4.0646,0.7172 -5.983545,1.74278 -1.978348,1.270588 -3.038461,2.672769 -4.12458,4.24076 -4.760411,8.278137 -8.927356,15.982505 -13.39036,23.963232 l 22.656141,12.257553 14.813622,-25.12508 5.54785,9.759569 -9.817652,5.896406 0.726158,3.630792 29.801531,0 14.987906,-25.822197 -2.70131,-2.643216 -9.933843,5.402623 -8.016788,-13.012762 c -8.641959,-0.0741 -17.227888,-0.39535 -25.880276,-0.40665 z m -7.406815,3.950301 c 1.775572,-0.04796 3.272662,0.09328 4.995969,0.08709 l 5.286433,9.149601 -14.02938,23.847042 -15.626928,-8.655808 c 4.123641,-7.158095 10.926739,-19.838169 12.373739,-21.494294 1.408789,-1.535831 2.811155,-2.322573 5.112155,-2.817494 0.667369,-0.0764 1.296145,-0.100189 1.888012,-0.116186 z m 9.58529,0.05809 21.465233,0.31951 8.742947,14.900776 6.128776,-3.514607 -9.207688,16.846875 -20.274342,0 7.523001,-3.892209 -14.377927,-24.660345 z m 41.884802,28.145905 -22.830415,13.012758 14.668399,25.444593 -11.357117,0 0,-11.618535 -3.80507,-0.784251 -14.552214,25.531729 14.784585,25.9964717 3.572699,-1.219946 0,-11.6185345 16.033573,0 c 5.798,-9.9739922 11.60075,-19.9727912 17.39876,-29.9467732 0.6074,-1.398834 1.0842,-2.773418 1.39422,-4.618367 0.19752,-1.508978 0.0882,-2.669112 -0.7552,-4.99597 -0.68372,-1.634356 -9.70484,-16.782877 -14.55222,-25.183175 z m -1.65564,5.460713 c 4.30207,7.346392 12.60945,20.544471 12.89657,22.017125 0.37174,1.196811 0.37175,2.404943 0,3.601745 -0.92493,1.916854 -2.4375,4.724357 -3.65983,7.087306 l -11.1538,0.261417 -13.419402,-23.847044 15.336462,-9.120549 z m -94.4005805,0.55188 -0.5518804,3.601746 9.6143369,5.54785 -7.61014,14.058429 17.021156,30.208188 c 0.762632,1.2954294 1.902679,2.5688226 2.962727,3.1950988 2.086242,1.3596752 3.279103,1.8469379 4.473135,2.0913361 10.122699,0.4543033 19.943734,0.02082 29.917725,0.029 l 0,-26.2869349 -29.307752,0 5.402619,-10.108125 10.050032,5.780221 2.643216,-2.672263 -14.784585,-25.415546 -29.8305895,-0.02905 0,4.6e-5 z m 8.0167885,3.921256 19.548187,0.261417 9.440059,16.614506 -6.622564,-3.369375 -13.971287,23.847041 -10.3405,-18.095866 8.394395,-15.075051 -6.44829,-4.182672 z m 64.62809,25.008897 -0.029,7.406815 28.145892,0 -10.398581,18.473471 -17.747311,0 0,7.3487228 -9.9048,-16.4402268 9.933847,-16.788782 -4.7e-5,0 z m -48.565463,7.406815 27.855436,0 0,18.473471 c -8.482553,-9.295e-4 -16.962029,0.3731501 -25.44459,0 -1.287984,-0.219508 -2.520553,-0.976144 -3.659838,-2.236569 -1.674919,-2.262789 -2.589047,-4.505008 -3.892209,-6.767796 l 5.141201,-9.469106 z"
       style="fill:#000000"
       id="path2208"
       sodipodi:nodetypes="cccccccccccccccccccccccccccccccccccccccccccccccccccccccccccccccccccccccccccccccccccccccccccccc" />
  </g>
</svg>
